# xmcd
#
# Track frame offsets: 
#        150
#        14803
#        26225
#        38529
#        56624
#        71766
#        89745
#        106457
#        128600
#        143534
#        155704
#        167883
#        180440
#
# Disc length: 2548 seconds
#
# Revision: 0
# Processed by: cddbd v1.5.2PL0 Copyright (c) Steve Scherf et al.
# Submitted via: ExactAudioCopyFreeDBPlugin 1.0
#
DISCID=b409f20d
DTITLE=Shoutin' Red - Introducing: Shoutin' Red
DYEAR=2014
DGENRE=
TTITLE0=When the Levee Breaks
TTITLE1=Wayward Girl
TTITLE2=Hesitation Blues
TTITLE3=Geordie
TTITLE4=Frankie and Albert
TTITLE5=Millman Blues
TTITLE6=Crazy Blues
TTITLE7=Seven Dark Strangers
TTITLE8=East Coast Blues
TTITLE9=Kassie Jones
TTITLE10=Labour Blues
TTITLE11=Cottonfield Blues
TTITLE12=Don't Speak to Me
EXTD=
EXTT0=
EXTT1=
EXTT2=
EXTT3=
EXTT4=
EXTT5=
EXTT6=
EXTT7=
EXTT8=
EXTT9=
EXTT10=
EXTT11=
EXTT12=
PLAYORDER=
